<?xml version="1.0" encoding="utf-8"?>
<!-- Generator: Adobe Illustrator 27.0.0, SVG Export Plug-In . SVG Version: 6.00 Build 0)  -->
<svg version="1.1" id="Capa_1" xmlns="http://www.w3.org/2000/svg" xmlns:xlink="http://www.w3.org/1999/xlink" x="0px" y="0px"
	 viewBox="0 0 1749 341" style="enable-background:new 0 0 1749 341;" xml:space="preserve">
<style type="text/css">
	.st0{fill-rule:evenodd;clip-rule:evenodd;fill:#516E77;}
	.st1{fill-rule:evenodd;clip-rule:evenodd;fill:#98D3B6;}
	.st2{fill:#516E77;}
</style>
<path class="st0" d="M0,0v185.3C0,250.2,46.5,303,111,304.5c0.9,0,1.8,0,2.7,0H127c65.9,0,113.6-53.4,113.6-119.2V0H0z"/>
<path class="st1" d="M79.3,36.3h240.6v110.2h-38.6V74.5H117.8v147.1c0,45.6,31.4,81,75.1,81h27.7v38.2h-27.7
	c-65.9,0-113.6-53.4-113.6-119.2V36.3z"/>
<path class="st2" d="M380.2,251.5v-100h-21.2v-30.5h21.2V76h37.5v44.9h43.7v30.5h-43.7v100c0,13.4,5.2,19,20.9,19h22.8v31.2h-29.3
	C400.1,301.7,380.3,288.2,380.2,251.5L380.2,251.5z"/>
<path class="st2" d="M470.6,301.7V76h37.2v65.9c12.4-15.1,32.6-23.9,55.7-23.9c40.1,0,71.4,26.6,71.4,77.1v106.6H598v-101
	c0-33.1-17.9-50.2-45-50.2s-45.3,17.1-45.3,50.2v101L470.6,301.7L470.6,301.7z"/>
<path class="st2" d="M741.5,149.5c-25.1,0-45.3,17.1-49.2,45.6h99.4C791,167.2,769.2,149.5,741.5,149.5z M825.6,247.9
	c-10.1,31.5-38.5,56.7-82.4,56.7c-51.5,0-89.6-36.7-89.6-93.5S690,118,743.1,118c53.1,0,87.3,35.8,87.3,88.9
	c0,6.2-0.3,12.1-1.3,18.4H692c2.6,29.9,23.8,47.9,51.2,47.9c22.8,0,35.5-11.2,42.4-25.3L825.6,247.9L825.6,247.9z"/>
<path class="st2" d="M887.9,178.7h41.1c29,0,42-14.1,42-37.1s-13-37.4-42-37.4h-41.1V178.7z M1009.1,141.6
	c0,32.5-21.2,67.6-80.2,67.6h-41.1v92.5h-37.1v-228h78.2C982.7,73.7,1009.1,104.5,1009.1,141.6z"/>
<path class="st2" d="M1199.3,211.1c0,56.7-41.7,93.5-93.2,93.5c-51.5,0-89.9-36.7-89.9-93.5s40.4-93.2,91.6-93.2
	C1158.9,118,1199.3,154.4,1199.3,211.1L1199.3,211.1z M1054,211.1c0,41,24.1,61,52.1,61s55.1-20,55.1-61s-26.4-60.7-54.1-60.7
	C1079.4,150.4,1053.9,170.1,1054,211.1L1054,211.1z"/>
<path class="st2" d="M1254.6,301.7l-56-180.7h37.8l37.5,145.3l38.1-145.3h38.8l36.5,144.7l37.2-144.7h36.5l-55.7,180.7h-39.1
	l-36.2-133.5l-36.2,133.5H1254.6L1254.6,301.7z"/>
<path class="st2" d="M1547.9,149.5c-25.1,0-45.3,17.1-49.2,45.6h99.4C1597.5,167.2,1575.6,149.5,1547.9,149.5z M1632,247.9
	c-10.1,31.5-38.4,56.7-82.4,56.7c-51.5,0-89.6-36.7-89.6-93.5s36.5-93.2,89.6-93.2c53.1,0,87.3,35.8,87.3,88.9
	c0,6.2-0.3,12.1-1.3,18.4h-137.2c2.6,29.9,23.8,47.9,51.2,47.9c22.8,0,35.5-11.2,42.4-25.3L1632,247.9L1632,247.9z"/>
<path class="st2" d="M1694.3,206.5v95.1h-37.2V120.9h37.2v26.2c10.4-18,28.3-29.2,53.8-29.2v38.7h-9.4
	C1711.3,156.7,1694.3,168.2,1694.3,206.5L1694.3,206.5z"/>
</svg>
